<?xml version="1.0" standalone="no"?><!DOCTYPE svg PUBLIC "-//W3C//DTD SVG 1.1//EN" "http://www.w3.org/Graphics/SVG/1.1/DTD/svg11.dtd"><svg t="1544146398240" class="icon" style="" viewBox="0 0 1024 1024" version="1.1" xmlns="http://www.w3.org/2000/svg" p-id="8891" xmlns:xlink="http://www.w3.org/1999/xlink" width="256" height="256"><defs><style type="text/css"></style></defs><path d="M712.9 343.8H311.1c-8.9 0-16.1 7.2-16.1 16.1v277.3l51-63.5s12.8-17.4 28.2-17.4c15.5 0 27.4 15.8 27.4 15.8l46.5 53.1s5.9 9.1 18.2 9.1c11.8 0 16.6-9.1 16.6-9.1l88.4-136.4s7-10.5 30.4-10.5c20.6 0 26.4 10.9 26.4 10.9L729 623.5V359.9c0-8.9-7.2-16.1-16.1-16.1z m-282 160.8c-31.4 0-56.9-25.5-56.9-56.9s25.5-56.9 56.9-56.9 56.9 25.5 56.9 56.9c0 31.5-25.4 56.9-56.9 56.9z" p-id="8892" data-spm-anchor-id="a313x.7781069.0.i4" class="selected" fill="#515151"></path><path d="M512 63.5C264.3 63.5 63.5 264.3 63.5 512S264.3 960.5 512 960.5 960.5 759.7 960.5 512 759.7 63.5 512 63.5z m257.2 609.2c0 26.6-21.6 48.2-48.2 48.2H303c-26.6 0-48.2-21.6-48.2-48.2V351.3c0-26.6 21.6-48.2 48.2-48.2h417.9c26.6 0 48.2 21.6 48.2 48.2v321.4z" p-id="8893" data-spm-anchor-id="a313x.7781069.0.i3" class="selected" fill="#515151"></path></svg>